<?xml version="1.0" encoding="UTF-8" standalone="no"?>
<!-- Generator: Adobe Illustrator 14.0.0, SVG Export Plug-In . SVG Version: 6.00 Build 43363)  -->

<svg
   xmlns:dc="http://purl.org/dc/elements/1.1/"
   xmlns:cc="http://creativecommons.org/ns#"
   xmlns:rdf="http://www.w3.org/1999/02/22-rdf-syntax-ns#"
   xmlns:svg="http://www.w3.org/2000/svg"
   xmlns="http://www.w3.org/2000/svg"
   xmlns:sodipodi="http://sodipodi.sourceforge.net/DTD/sodipodi-0.dtd"
   xmlns:inkscape="http://www.inkscape.org/namespaces/inkscape"
   version="1.1"
   id="Layer_1"
   x="0px"
   y="0px"
   width="42"
   height="42"
   viewBox="0 0 41.999999 41.999998"
   enable-background="new 0 0 841.89 595.28"
   xml:space="preserve"
   inkscape:version="0.48.4 r9939"
   sodipodi:docname="negative.svg"><metadata
     id="metadata3105"><rdf:RDF><cc:Work
         rdf:about=""><dc:format>image/svg+xml</dc:format><dc:type
           rdf:resource="http://purl.org/dc/dcmitype/StillImage" /></cc:Work></rdf:RDF></metadata><defs
     id="defs3103" /><sodipodi:namedview
     pagecolor="#ffffff"
     bordercolor="#666666"
     borderopacity="1"
     objecttolerance="10"
     gridtolerance="10"
     guidetolerance="10"
     inkscape:pageopacity="0"
     inkscape:pageshadow="2"
     inkscape:window-width="1215"
     inkscape:window-height="728"
     id="namedview3101"
     showgrid="false"
     showborder="true"
     inkscape:zoom="0.97601124"
     inkscape:cx="420.94501"
     inkscape:cy="297.64001"
     inkscape:window-x="65"
     inkscape:window-y="24"
     inkscape:window-maximized="1"
     inkscape:current-layer="Layer_1" /><g
     id="g3091"
     transform="translate(-399.58556,-276.64388)"><path
       d="m 420.271,283.09 c -8.283,0 -14.998,6.715 -14.998,15 0,8.283 6.715,15 14.998,15 8.285,0 15.002,-6.717 15.002,-15 0,-8.285 -6.716,-15 -15.002,-15 z m 0,25.914 c -6.027,0 -10.912,-4.887 -10.912,-10.914 0,-6.027 4.885,-10.914 10.912,-10.914 6.027,0 10.914,4.887 10.914,10.914 0,6.027 -4.886,10.914 -10.914,10.914 z"
       id="path3093"
       inkscape:connector-curvature="0"
       style="fill:#efefef" /><circle
       cx="415.10599"
       cy="296.28201"
       r="2.3989999"
       id="circle3095"
       d="m 417.50499,296.28201 c 0,1.32493 -1.07407,2.399 -2.399,2.399 -1.32493,0 -2.399,-1.07407 -2.399,-2.399 0,-1.32493 1.07407,-2.399 2.399,-2.399 1.32493,0 2.399,1.07407 2.399,2.399 z"
       sodipodi:cx="415.10599"
       sodipodi:cy="296.28201"
       sodipodi:rx="2.3989999"
       sodipodi:ry="2.3989999"
       style="fill:#efefef" /><circle
       cx="425.439"
       cy="296.28201"
       r="2.3989999"
       id="circle3097"
       d="m 427.838,296.28201 c 0,1.32493 -1.07407,2.399 -2.399,2.399 -1.32494,0 -2.399,-1.07407 -2.399,-2.399 0,-1.32493 1.07406,-2.399 2.399,-2.399 1.32493,0 2.399,1.07407 2.399,2.399 z"
       sodipodi:cx="425.439"
       sodipodi:cy="296.28201"
       sodipodi:rx="2.3989999"
       sodipodi:ry="2.3989999"
       style="fill:#efefef" /><path
       d="m 416.515,305.043 c 1.059,-0.781 2.348,-1.246 3.758,-1.246 1.41,0 2.699,0.465 3.756,1.246 0.441,0.33 1.068,0.236 1.396,-0.205 0.33,-0.444 0.236,-1.07 -0.205,-1.4 -1.377,-1.024 -3.094,-1.643 -4.947,-1.643 -1.853,0 -3.57,0.618 -4.949,1.643 -0.441,0.33 -0.533,0.956 -0.205,1.4 0.329,0.441 0.954,0.533 1.396,0.205 z"
       id="path3099"
       inkscape:connector-curvature="0"
       style="fill:#efefef" /></g></svg>