<?xml version="1.0" encoding="UTF-8" standalone="no"?>
<!-- Generator: Adobe Illustrator 14.0.0, SVG Export Plug-In . SVG Version: 6.00 Build 43363)  -->

<svg
   xmlns:dc="http://purl.org/dc/elements/1.1/"
   xmlns:cc="http://creativecommons.org/ns#"
   xmlns:rdf="http://www.w3.org/1999/02/22-rdf-syntax-ns#"
   xmlns:svg="http://www.w3.org/2000/svg"
   xmlns="http://www.w3.org/2000/svg"
   xmlns:sodipodi="http://sodipodi.sourceforge.net/DTD/sodipodi-0.dtd"
   xmlns:inkscape="http://www.inkscape.org/namespaces/inkscape"
   version="1.1"
   id="Layer_1"
   x="0px"
   y="0px"
   width="42"
   height="42"
   viewBox="0 0 41.999999 41.999998"
   enable-background="new 0 0 841.89 595.28"
   xml:space="preserve"
   inkscape:version="0.48.4 r9939"
   sodipodi:docname="positive.svg"><metadata
     id="metadata3197"><rdf:RDF><cc:Work
         rdf:about=""><dc:format>image/svg+xml</dc:format><dc:type
           rdf:resource="http://purl.org/dc/dcmitype/StillImage" /></cc:Work></rdf:RDF></metadata><defs
     id="defs3195" /><sodipodi:namedview
     pagecolor="#ffffff"
     bordercolor="#666666"
     borderopacity="1"
     objecttolerance="10"
     gridtolerance="10"
     guidetolerance="10"
     inkscape:pageopacity="0"
     inkscape:pageshadow="2"
     inkscape:window-width="1215"
     inkscape:window-height="728"
     id="namedview3193"
     showgrid="false"
     inkscape:zoom="0.98100786"
     inkscape:cx="393.03282"
     inkscape:cy="126.33146"
     inkscape:window-x="65"
     inkscape:window-y="24"
     inkscape:window-maximized="1"
     inkscape:current-layer="Layer_1" /><g
     id="g3183"
     transform="translate(-346.58233,-183.25241)"><path
       d="m 367.938,189.069 c -8.283,0 -14.998,6.716 -14.998,15 0,8.284 6.715,15 14.998,15 8.285,0 15.002,-6.716 15.002,-15 0,-8.284 -6.716,-15 -15.002,-15 z m 0,25.914 c -6.027,0 -10.912,-4.887 -10.912,-10.914 0,-6.027 4.885,-10.914 10.912,-10.914 6.027,0 10.914,4.886 10.914,10.914 0,6.028 -4.886,10.914 -10.914,10.914 z"
       id="path3185"
       inkscape:connector-curvature="0"
       style="fill:#efefef" /><circle
       cx="362.77301"
       cy="202.26199"
       r="2.3989999"
       id="circle3187"
       sodipodi:cx="362.77301"
       sodipodi:cy="202.26199"
       sodipodi:rx="2.3989999"
       sodipodi:ry="2.3989999"
       style="fill:#efefef"
       d="m 365.17201,202.26199 c 0,1.32493 -1.07407,2.399 -2.399,2.399 -1.32493,0 -2.399,-1.07407 -2.399,-2.399 0,-1.32493 1.07407,-2.399 2.399,-2.399 1.32493,0 2.399,1.07407 2.399,2.399 z" /><circle
       cx="373.10599"
       cy="202.26199"
       r="2.4000001"
       id="circle3189"
       sodipodi:cx="373.10599"
       sodipodi:cy="202.26199"
       sodipodi:rx="2.4000001"
       sodipodi:ry="2.4000001"
       style="fill:#efefef"
       d="m 375.50599,202.26199 c 0,1.32549 -1.07452,2.4 -2.4,2.4 -1.32549,0 -2.4,-1.07451 -2.4,-2.4 0,-1.32548 1.07451,-2.4 2.4,-2.4 1.32548,0 2.4,1.07452 2.4,2.4 z" /><path
       d="m 371.696,208.699 c -1.059,0.782 -2.348,1.247 -3.758,1.247 -1.41,0 -2.699,-0.465 -3.756,-1.247 -0.441,-0.33 -1.068,-0.236 -1.396,0.206 -0.33,0.444 -0.236,1.069 0.205,1.399 1.377,1.025 3.094,1.643 4.947,1.643 1.853,0 3.57,-0.618 4.949,-1.643 0.441,-0.33 0.533,-0.956 0.205,-1.399 -0.329,-0.442 -0.954,-0.534 -1.396,-0.206 z"
       id="path3191"
       inkscape:connector-curvature="0"
       style="fill:#efefef" /></g></svg>